# AST/ASF file generated using VICON BodyLanguage
# -----------------------------------------------
:version 1.10
:name VICON
:units
  mass 1.0
  length 0.45
  angle deg
:documentation
   .ast/.asf automatically generated from VICON data using
   VICON BodyBuilder and BodyLanguage model FoxedUp or BRILLIANT.MOD
:root
   order TX TY TZ RX RY RZ
   axis XYZ
   position 0 0 0  
   orientation 0 0 0 
:bonedata
  begin
     id 1 
     name lhipjoint
     direction 0.621036 -0.695554 0.361275 
     length 2.46325 
     axis 0 0 0  XYZ
  end
  begin
     id 2 
     name lfemur
     direction 0.34202 -0.939693 0  
     length 6.54784  
     axis 0 0 20  XYZ
    dof rx ry rz
    limits (-160.0 20.0)
           (-70.0 70.0)
           (-60.0 70.0)
  end
  begin
     id 3 
     name ltibia
     direction 0.34202 -0.939693 0   
     length 7.84737   
     axis 0 0 20   XYZ
    dof rx
    limits (-10.0 170.0)
  end
  begin
     id 4 
     name lfoot
     direction 0.0790693 -0.217241 0.97291   
     length 2.59747   
     axis -90 7.62852e-016 20   XYZ
    dof rx rz
    limits (-45.0 90.0)
           (-70.0 20.0)
  end
  begin
     id 5 
     name ltoes
     direction 1.53572e-011 -4.21898e-011 1   
     length 1.29919   
     axis -90 7.62852e-016 20   XYZ
    dof rx
    limits (-90.0 20.0)
  end
  begin
     id 6 
     name rhipjoint
     direction -0.602353 -0.708375 0.367935   
     length 2.41867  
     axis 0 0 0  XYZ 
  end
  begin
     id 7 
     name rfemur
     direction -0.34202 -0.939693 0   
     length 6.92065   
     axis 0 0 -20   XYZ
    dof rx ry rz
    limits (-160.0 20.0)
           (-70.0 70.0)
           (-70.0 60.0)
  end
  begin
     id 8 
     name rtibia
     direction -0.34202 -0.939693 0   
     length 7.88883   
     axis 0 0 -20   XYZ
    dof rx
    limits (-10.0 170.0)
 end
 begin
     id 9 
     name rfoot
     direction -0.0768692 -0.211196 0.974416   
     length 2.43714  
     axis -90 -7.62852e-016 -20   XYZ
    dof rx rz
    limits (-45.0 90.0)
           (-20.0 70.0)
  end
  begin
     id 10 
     name rtoes
     direction -1.53575e-011 -4.21933e-011 1   
     length 1.22113   
     axis -90 -7.62852e-016 -20   XYZ
    dof rx
    limits (-90.0 20.0)
  end
  begin
     id 11 
     name lowerback
     direction 0.0197937 0.98943 -0.143655   
     length 2.16931   
     axis 0 0 0   XYZ
    dof rx ry rz
    limits (-20.0 45.0)
           (-30.0 30.0)
           (-30.0 30.0)
  end
  begin
     id 12 
     name upperback
     direction -0.00183968 0.999975 0.00684288   
     length 2.17221   
     axis 0 0 0   XYZ
    dof rx ry rz
    limits (-20.0 45.0)
           (-30.0 30.0)
           (-30.0 30.0)
  end
  begin
     id 13 
     name thorax
     direction -0.00950244 0.997208 0.0740685   
     length 2.22549   
     axis 0 0 0   XYZ
    dof rx ry rz
    limits (-20.0 45.0)
           (-30.0 30.0)
           (-30.0 30.0)
  end
  begin
     id 14 
     name lowerneck
     direction 0.0218238 0.996215 0.0841425   
     length 1.77269   
     axis 0 0 0   XYZ
    dof rx ry rz
    limits (-20.0 45.0)
           (-30.0 30.0)
           (-30.0 30.0)
  end
  begin
     id 15 
     name upperneck
     direction -0.00430652 0.994214 -0.107332   
     length 1.76534   
     axis 0 0 0   XYZ
    dof rx ry rz
    limits (-20.0 45.0)
           (-30.0 30.0)
           (-30.0 30.0)
  end
  begin
     id 16
     name head
     direction -0.00328946 0.998959 -0.0454998  
     length 1.82634  
     axis 0 0 0   XYZ
    dof rx ry rz
    limits (-20.0 45.0)
           (-30.0 30.0)
           (-30.0 30.0)
  end
  begin
     id 17 
     name lclavicle
     direction 0.970962 0.239191 0.00450212  
     length 3.84872  
     axis 0 0 0   XYZ
    dof ry rz
    limits (-20.0 10.0)
           (0.0 20.0)
  end
  begin
     id 18 
     name lhumerus
     direction 1 -4.48966e-011 5.74696e-028   
     length 5.22771   
     axis 180 -30 -90   XYZ
    dof rx ry rz
    limits (-60.0 90.0)
           (-90.0 90.0)
           (-90.0 90.0)
  end
  begin
     id 19
     name lradius
     direction 1 -4.4896e-011 4.25109e-027   
     length 3.45251   
     axis 180 -30 -90   XYZ
    dof rx
    limits (-10.0 170.0)
  end
  begin
     id 20
     name lwrist
     direction 1 -4.48971e-011 1.15382e-027   
     length 1.72626   
     axis -5.52449e-016 90 90   XYZ
    dof ry
    limits (-180.0 0.0)
 end
  begin
     id 21 
     name lhand
     direction 1 -4.49034e-011 2.30765e-027   
     length 0.552119   
     axis -1.47248e-015 90 90   XYZ
    dof rx rz
    limits (-90.0 90.0)
           (-45.0 45.0)
  end
  begin
     id 22 
     name lfingers
     direction 1 -4.48951e-011 4.61529e-027   
     length 0.445133   
     axis -2.94495e-015 90 90   XYZ
    dof rx
    limits (0.0 90.0)
  end
  begin
     id 23
     name lthumb
     direction 0.707107 -6.34991e-011 0.707107   
     length 0.639124   
     axis -90 45 2.85299e-015   XYZ
    dof rx rz
    limits (-45.0 45.0)
           (-45.0 45.0)
  end
  begin
     id 24 
     name rclavicle
     direction -0.97424 0.222511 -0.0366699   
     length 3.73439  
     axis 0 0 0   XYZ 
    dof ry rz
    limits (-10.0 20.0)
           (-20.0 0.0)
  end
  begin
     id 25 
     name rhumerus
     direction -1 -4.48956e-011 -4.97258e-028  
     length 5.2398   
     axis 180 30 90   XYZ
    dof rx ry rz
    limits (-90.0 60.0)
           (-90.0 90.0)
           (-90.0 90.0)
  end
  begin
     id 26 
     name rradius
     direction -1 -4.4897e-011 -1.72611e-027   
     length 3.48042   
     axis 180 30 90   XYZ
    dof rx
    limits (-10.0 170.0)
  end
  begin
     id 27 
     name rwrist
     direction -1 -4.48976e-011 1.15382e-027   
     length 1.74021   
     axis -5.52449e-016 -90 -90   XYZ
    dof ry
    limits (-180.0 0.0)
  end
  begin
     id 28
     name rhand
     direction -1 -4.48963e-011 2.30765e-027   
     length 0.618713   
     axis -1.47248e-015 -90 -90   XYZ
    dof rx rz
    limits (-90.0 90.0)
           (-45.0 45.0)
  end
  begin
     id 29
     name rfingers
     direction -1 -4.4888e-011 4.61529e-027   
     length 0.498823   
     axis -2.94495e-015 -90 -90   XYZ
    dof rx
    limits (0.0 90.0)
  end
  begin
     id 30
     name rthumb
     direction -0.707107 -6.34968e-011 0.707107   
     length 0.716213   
     axis -90 -45 -2.85299e-015   XYZ
    dof rx rz
    limits (-45.0 45.0)
           (-45.0 45.0)
  end
:hierarchy
  begin
    root lhipjoint rhipjoint lowerback
    lhipjoint lfemur
    lfemur ltibia
    ltibia lfoot
    lfoot ltoes
    rhipjoint rfemur
    rfemur rtibia
    rtibia rfoot
    rfoot rtoes
    lowerback upperback
    upperback thorax
    thorax lowerneck lclavicle rclavicle
    lowerneck upperneck
    upperneck head
    lclavicle lhumerus
    lhumerus lradius
    lradius lwrist
    lwrist lhand lthumb
    lhand lfingers
    rclavicle rhumerus
    rhumerus rradius
    rradius rwrist
    rwrist rhand rthumb
    rhand rfingers
  end

#!OML:ASF G:\JayActor3\Patient Classification 1\Patient 1\Session 5\male.ASF
:FULLY-SPECIFIED
:DEGREES
405
root 25.0468 14.0428 -4.39226 -29.9041 87.5242 315.74
lowerback 31.876 -1.3439 -0.0642141
upperback 6.95635 -1.19032 -1.15352
thorax -9.5786 -0.28644 -0.861808
lowerneck -4.91225 0.282091 2.39046
upperneck -13.7777 0.850298 0.980124
head -3.60316 0.454877 -0.115118
rclavicle 9.14409e-015 1.70955e-014
rhumerus -23.2921 10.265 -87.0787
rradius 51.5309
rwrist -5.50894
rhand -21.215 -8.55035
rfingers 7.12502
rthumb 5.16678 -38.4674
lclavicle 9.14409e-015 1.70955e-014
lhumerus -19.8406 -6.33803 81.1535
lradius 40.6331
lwrist 25.1667
lhand -20.2875 11.2606
lfingers 7.12502
lthumb 6.06226 41.1539
rfemur -45.8932 -3.37196 28.614
rtibia 85.5447
rfoot -37.7304 -9.05205
rtoes -19.7303
lfemur -72.3892 7.00654 -26.5504
ltibia 64.1398
lfoot -3.24462 1.12871
ltoes 6.41279
406
root 24.9346 14.041 -4.36355 -31.6068 87.6793 314.126
lowerback 32.2215 -1.37994 -0.0977369
upperback 6.52394 -1.24487 -1.18197
thorax -9.43732 -0.300223 -0.7882
lowerneck -4.91032 0.279377 2.3867
upperneck -13.7872 0.848994 0.992903
head -3.60699 0.454166 -0.110312
rclavicle 1.19271e-015 -1.07344e-014
rhumerus -23.2596 10.2883 -87.0861
rradius 51.5079
rwrist -5.50155
rhand -21.2 -8.58591
rfingers 7.12502
rthumb 5.18121 -38.5026
lclavicle 1.19271e-015 -1.07344e-014
lhumerus -19.8641 -6.34929 81.1858
lradius 40.5819
lwrist 25.1789
lhand -20.2404 11.2874
lfingers 7.12502
lthumb 6.10773 41.1794
rfemur -46.2066 -3.35309 28.7627
rtibia 85.3981
rfoot -37.886 -9.1423
rtoes -18.9826
lfemur -72.5638 6.964 -26.5904
ltibia 63.6276
lfoot -2.10232 1.21406
ltoes 6.30754
407
root 24.8214 14.0501 -4.33422 -33.8123 87.842 312.006
lowerback 32.3302 -1.42028 -0.122654
upperback 6.5218 -1.29969 -1.1785
thorax -9.48296 -0.323073 -0.750554
lowerneck -4.90316 0.274046 2.38542
upperneck -13.8136 0.845256 1.0063
head -3.6178 0.452161 -0.105771
rclavicle -2.22639e-014 -2.94201e-014
rhumerus -23.2318 10.3067 -87.09
rradius 51.4997
rwrist -5.50291
rhand -21.1857 -8.61858
rfingers 7.12502
rthumb 5.19502 -38.5349
lclavicle -2.22639e-014 -2.94201e-014
lhumerus -19.8828 -6.36752 81.2189
lradius 40.536
lwrist 25.1844
lhand -20.1727 11.3355
lfingers 7.12502
lthumb 6.17313 41.2255
rfemur -46.4704 -3.33614 28.9229
rtibia 85.1625
rfoot -38.0318 -9.28966
rtoes -18.2072
lfemur -72.692 6.93711 -26.6349
ltibia 63.0744
lfoot -0.894228 1.2576
ltoes 5.91862
408
root 24.7083 14.0603 -4.30447 -36.7658 88.003 309.135
lowerback 32.451 -1.46164 -0.140146
upperback 6.52065 -1.35247 -1.17121
thorax -9.53219 -0.344876 -0.713403
lowerneck -4.89103 0.263981 2.38211
upperneck -13.8576 0.836965 1.02596
head -3.63589 0.447854 -0.0988292
rclavicle 2.18663e-014 2.0276e-014
rhumerus -23.2066 10.315 -87.0888
rradius 51.5039
rwrist -5.51339
rhand -21.1852 -8.64193
rfingers 7.12502
rthumb 5.19555 -38.5582
lclavicle 2.18663e-014 2.0276e-014
lhumerus -19.8968 -6.39966 81.2515
lradius 40.5031
lwrist 25.1904
lhand -20.0982 11.3902
lfingers 7.12502
lthumb 6.245 41.2782
rfemur -46.7161 -3.30963 29.1069
rtibia 84.8897
rfoot -38.1908 -9.5017
rtoes -17.3837
lfemur -72.837 6.92279 -26.6676
ltibia 62.5332
lfoot 0.391662 1.25426
ltoes 5.30652
409
root 24.5956 14.0714 -4.2746 -40.5189 88.1572 305.463
lowerback 32.5794 -1.50284 -0.152742
upperback 6.52276 -1.4025 -1.16086
thorax -9.58062 -0.365226 -0.676518
lowerneck -4.87231 0.251906 2.38838
upperneck -13.9222 0.826958 1.04332
head -3.66253 0.44238 -0.0943446
rclavicle 3.97569e-016 -2.5842e-014
rhumerus -23.1846 10.3156 -87.0834
rradius 51.5184
rwrist -5.52863
rhand -21.1989 -8.64897
rfingers 7.12502
rthumb 5.18229 -38.5656
lclavicle 3.97569e-016 -2.5842e-014
lhumerus -19.9029 -6.43931 81.2839
lradius 40.4773
lwrist 25.197
lhand -20.0291 11.4351
lfingers 7.12502
lthumb 6.31172 41.3211
rfemur -46.9443 -3.26988 29.3101
rtibia 84.5714
rfoot -38.3537 -9.79244
rtoes -16.5077
lfemur -72.9853 6.92471 -26.6842
ltibia 61.9854
lfoot 1.75483 1.19875
ltoes 4.55431
410
root 24.4834 14.0835 -4.24456 -45.1653 88.3007 300.897
lowerback 32.7151 -1.5428 -0.163094
upperback 6.52732 -1.44945 -1.14832
thorax -9.62902 -0.383957 -0.639504
lowerneck -4.84911 0.239555 2.40452
upperneck -13.9999 0.816963 1.05679
head -3.69471 0.436613 -0.0928902
rclavicle -2.38542e-015 1.27222e-014
rhumerus -23.1676 10.3095 -87.0753
rradius 51.544
rwrist -5.54677
rhand -21.2327 -8.64165
rfingers 7.12502
rthumb 5.14968 -38.5591
lclavicle -2.38542e-015 1.27222e-014
lhumerus -19.9013 -6.48359 81.3142
lradius 40.4602
lwrist 25.1984
lhand -19.9665 11.4833
lfingers 7.12502
lthumb 6.37219 41.3674
rfemur -47.1555 -3.21247 29.5289
rtibia 84.219
rfoot -38.5265 -10.1613
rtoes -15.5816
lfemur -73.1377 6.94496 -26.6796
ltibia 61.4459
lfoot 3.16865 1.0974
ltoes 3.78851
411
root 24.3715 14.0968 -4.21442 -50.8475 88.4273 295.286
lowerback 32.8508 -1.58148 -0.167072
upperback 6.53269 -1.49238 -1.13479
thorax -9.67638 -0.400894 -0.60623
lowerneck -4.83065 0.224131 2.41977
upperneck -14.0797 0.804072 1.07967
head -3.72689 0.429233 -0.0881119
rclavicle 2.66371e-014 2.70347e-014
rhumerus -23.1541 10.2968 -87.0653
rradius 51.5762
rwrist -5.56609
rhand -21.2616 -8.63363
rfingers 7.12502
rthumb 5.12176 -38.5517
lclavicle 2.66371e-014 2.70347e-014
lhumerus -19.8946 -6.53253 81.3404
lradius 40.4506
lwrist 25.1956
lhand -19.9192 11.5174
lfingers 7.12502
lthumb 6.41779 41.4002
rfemur -47.3633 -3.12986 29.7603
rtibia 83.8374
rfoot -38.7044 -10.5873
rtoes -14.5809
lfemur -73.2969 6.97828 -26.6453
ltibia 60.9094
lfoot 4.60594 0.990931
ltoes 3.18741
412
root 24.26 14.1117 -4.18435 -57.5716 88.5367 288.627
lowerback 32.9854 -1.61891 -0.169134
upperback 6.53876 -1.53283 -1.12032
thorax -9.72238 -0.416658 -0.573824
lowerneck -4.81828 0.205779 2.42681
upperneck -14.1541 0.788197 1.11316
head -3.75613 0.420463 -0.0783153
rclavicle -1.19271e-014 -1.27222e-014
rhumerus -23.1461 10.2794 -87.0529
rradius 51.6128
rwrist -5.58771
rhand -21.2826 -8.63134
rfingers 7.12502
rthumb 5.10153 -38.5499
lclavicle -1.19271e-014 -1.27222e-014
lhumerus -19.8861 -6.58228 81.3662
lradius 40.449
lwrist 25.1905
lhand -19.899 11.5323
lfingers 7.12502
lthumb 6.4373 41.4145
rfemur -47.5663 -3.02274 29.9915
rtibia 83.431
rfoot -38.8842 -11.0432
rtoes -13.495
lfemur -73.4486 7.0182 -26.5807
ltibia 60.3688
lfoot 6.03158 0.88603
ltoes 2.56706
413
root 24.1491 14.1275 -4.15443 -65.3194 88.6179 280.934
lowerback 33.1121 -1.65461 -0.163827
upperback 6.54394 -1.5687 -1.10469
thorax -9.76618 -0.430591 -0.545796
lowerneck -4.81533 0.184407 2.4258
upperneck -14.2165 0.768433 1.15444
head -3.77942 0.409937 -0.0643986
rclavicle -2.38542e-015 -1.03368e-014
rhumerus -23.1425 10.2575 -87.0368
rradius 51.6513
rwrist -5.60738
rhand -21.3011 -8.62212
rfingers 7.12502
rthumb 5.08362 -38.5411
lclavicle -2.38542e-015 -1.03368e-014
lhumerus -19.8766 -6.62915 81.3901
lradius 40.4512
lwrist 25.1749
lhand -19.8846 11.5404
lfingers 7.12502
lthumb 6.45118 41.4221
rfemur -47.7738 -2.88243 30.2213
rtibia 83.0104
rfoot -39.06 -11.5072
rtoes -12.327
lfemur -73.5947 7.06297 -26.4779
ltibia 59.8275
lfoot 7.36548 0.783287
ltoes 1.7705
414
root 24.0392 14.1442 -4.12475 -73.7052 88.6737 272.594
lowerback 33.2265 -1.68627 -0.158466
upperback 6.54958 -1.59969 -1.0896
thorax -9.80449 -0.4424 -0.520233
lowerneck -4.81786 0.160903 2.42362
upperneck -14.2695 0.744685 1.19143
head -3.79834 0.397635 -0.0515515
rclavicle 5.96354e-015 1.51076e-014
rhumerus -23.1428 10.2297 -87.0166
rradius 51.6879
rwrist -5.62466
rhand -21.3033 -8.62308
rfingers 7.12502
rthumb 5.08154 -38.5422
lclavicle 5.96354e-015 1.51076e-014
lhumerus -19.8709 -6.67458 81.4135
lradius 40.4633
lwrist 25.1476
lhand -19.867 11.543
lfingers 7.12502
lthumb 6.46821 41.4242
rfemur -47.9862 -2.70927 30.4344
rtibia 82.5854
rfoot -39.2304 -11.949
rtoes -11.0439
lfemur -73.7242 7.10627 -26.3388
ltibia 59.2913
lfoot 8.48837 0.648235
ltoes 0.485054
415
root 23.9308 14.1598 -4.09573 -82.4081 88.703 263.929
lowerback 33.3261 -1.71556 -0.15352
upperback 6.555 -1.6283 -1.07541
thorax -9.83717 -0.453305 -0.496369
lowerneck -4.82483 0.138798 2.42298
upperneck -14.3102 0.720949 1.21916
head -3.81197 0.385549 -0.0419622
rclavicle 1.98785e-015 -7.95139e-016
rhumerus -23.1474 10.2038 -86.9941
rradius 51.718
rwrist -5.6378
rhand -21.2844 -8.62238
rfingers 7.12502
rthumb 5.09977 -38.541
lclavicle 1.98785e-015 -7.95139e-016
lhumerus -19.8703 -6.71391 81.4361
lradius 40.4791
lwrist 25.1145
lhand -19.8464 11.5462
lfingers 7.12502
lthumb 6.48814 41.4268
rfemur -48.2093 -2.50781 30.6262
rtibia 82.173
rfoot -39.3898 -12.3665
rtoes -9.68023
lfemur -73.841 7.15356 -26.1734
ltibia 58.7834
lfoot 9.28274 0.424545
ltoes -1.52188
416
root 23.8244 14.1737 -4.0674 -91.1577 88.7066 255.211
lowerback 33.4096 -1.74332 -0.150948
upperback 6.56102 -1.65608 -1.06136
thorax -9.86277 -0.463976 -0.471797
lowerneck -4.83738 0.118708 2.41982
upperneck -14.3383 0.698075 1.23785
head -3.81997 0.374317 -0.0348788
rclavicle 5.1684e-015 -8.74653e-015
rhumerus -23.1513 10.1821 -86.9676
rradius 51.7396
rwrist -5.64806
rhand -21.2583 -8.61117
rfingers 7.12502
rthumb 5.12498 -38.5292
lclavicle 5.1684e-015 -8.74653e-015
lhumerus -19.8787 -6.74724 81.4588
lradius 40.504
lwrist 25.0813
lhand -19.8237 11.5565
lfingers 7.12502
lthumb 6.51006 41.4365
rfemur -48.4407 -2.28446 30.7952
rtibia 81.7798
rfoot -39.535 -12.7665
rtoes -8.30582
lfemur -73.9475 7.20454 -25.988
ltibia 58.3329
lfoot 9.65894 0.0666119
ltoes -4.26443
417
root 23.72 14.1852 -4.04009 -99.6884 88.6875 246.707
lowerback 33.4758 -1.77113 -0.148451
upperback 6.56758 -1.68456 -1.04953
thorax -9.88103 -0.475176 -0.449419
lowerneck -4.85228 0.102208 2.42286
upperneck -14.3557 0.677706 1.24265
head -3.82365 0.364454 -0.0334638
rclavicle -5.96354e-015 -3.18055e-015
rhumerus -23.1552 10.163 -86.9401
rradius 51.7502
rwrist -5.65932
rhand -21.2198 -8.58765
rfingers 7.12502
rthumb 5.1621 -38.5048
lclavicle -5.96354e-015 -3.18055e-015
lhumerus -19.8963 -6.77955 81.4798
lradius 40.5343
lwrist 25.0473
lhand -19.8028 11.5695
lfingers 7.12502
lthumb 6.53018 41.4488
rfemur -48.6779 -2.05031 30.941
rtibia 81.4108
rfoot -39.6715 -13.1645
rtoes -6.98728
lfemur -74.053 7.25945 -25.7973
ltibia 57.9857
lfoot 9.58726 -0.446019
ltoes -7.51645
418
root 23.6178 14.1945 -4.01382 -108.02 88.6517 238.4
lowerback 33.5288 -1.80003 -0.153144
upperback 6.57319 -1.71753 -1.04014
thorax -9.89512 -0.488477 -0.424174
lowerneck -4.86534 0.0921043 2.43569
upperneck -14.3647 0.663462 1.23072
head -3.82451 0.357634 -0.039355
rclavicle 1.51076e-014 1.59028e-015
rhumerus -23.1613 10.1498 -86.9121
rradius 51.7526
rwrist -5.66995
rhand -21.182 -8.56548
rfingers 7.12502
rthumb 5.1986 -38.4817
lclavicle 1.51076e-014 1.59028e-015
lhumerus -19.9293 -6.80898 81.4994
lradius 40.5778
lwrist 25.0128
lhand -19.7744 11.601
lfingers 7.12502
lthumb 6.55756 41.4794
rfemur -48.9172 -1.82121 31.0597
rtibia 81.0647
rfoot -39.8079 -13.5574
rtoes -5.75226
lfemur -74.1708 7.3187 -25.624
ltibia 57.7915
lfoot 9.10479 -1.11916
ltoes -10.9573
